<svg xmlns="http://www.w3.org/2000/svg" viewBox="0 0 400 200">
  <rect width="400" height="200" fill="#dcebf5"/>
  <!-- deep pinkish-red body with blue spots and a bumpy forehead -->
  <path d="M70 110 Q95 45 180 42 Q280 40 320 95 L320 120 Q250 165 160 158 Q95 150 70 110 Z" fill="#e2726b"/>
  <path d="M320 95 L375 65 L365 105 L375 145 L320 120 Z" fill="#c95a54"/>
  <path d="M120 55 Q180 20 260 48 L250 60 Q180 40 130 62 Z" fill="#c95a54"/>
  <path d="M95 60 Q88 48 95 42 Q104 50 100 60 Z" fill="#e2726b"/>
  <circle cx="105" cy="85" r="9" fill="#2b2b2b"/>
  <circle cx="108" cy="82" r="3" fill="#fff"/>
  <g fill="#6fa8dc">
    <circle cx="180" cy="80" r="4"/><circle cx="220" cy="70" r="4"/>
    <circle cx="250" cy="90" r="4"/><circle cx="200" cy="110" r="4"/>
    <circle cx="260" cy="120" r="4"/><circle cx="160" cy="115" r="4"/>
  </g>
  <path d="M150 150 Q170 170 200 158 L190 145 Z" fill="#c95a54"/>
</svg>
